:FULLY-SPECIFIED
:FORCE-ALL-JOINTS-BE-3DOF
:DEGREES
611
root 5.59575 16.6843 -3.77933 0.124405 52.3889 -7.90802
lfemur -17.9791 24.7078 -22.0203
ltibia 40.3871 -0 0
lfoot -32.5329 25.0097 0.00297102
ltoes 18.1822 -0 0
rfemur -53.0186 -17.9238 28.1792
rtibia 61.8546 -0 0
rfoot 7.92787 29.8264 0.0321247
rtoes -3.49368 0 0
lowerback 3.55174 -3.31857 -4.93526
upperback 0.0786021 -4.60375 1.09128
thorax -1.42754 -2.26414 4.0844
lowerneck -8.37304 -9.39385 -0.516749
upperneck 14.9204 -13.4006 4.59802
head 6.26078 -6.1595 0.454703
lclavicle 9.71063e-14 1.03368e-14 0
lhumerus -22.2558 -42.2294 92.9168
lradius 56.6664 -0 0
lwrist 20.5917 0 0
lhand -10.401 0.368295 -0.00493539
lfingers 7.12502 -0 0
lthumb 15.5978 29.7642 -0.00392965
rclavicle 9.71063e-14 1.03368e-14 0
rhumerus 21.9461 3.61335 -72.1181
rradius 118.343 -0 0
rwrist -58.6991 0 0
rhand -27.0289 -22.4718 0.00500927
rfingers 7.12502 -0 0
rthumb -0.448057 -52.4501 0.00481801
612
root 5.5787 16.7049 -3.7888 0.678181 50.685 -7.59334
lfemur -17.8451 24.8156 -22.0657
ltibia 40.0243 -0 0
lfoot -32.5607 24.8407 0.00598878
ltoes 18.8298 -0 0
rfemur -52.9321 -18.0387 28.145
rtibia 61.9556 -0 0
rfoot 7.77591 29.2874 0.0650297
rtoes -3.18918 0 0
lowerback 3.36498 -3.36704 -4.86896
upperback -0.0513512 -4.65981 1.10881
thorax -1.4538 -2.28935 4.05966
lowerneck -8.49655 -9.25195 -0.399455
upperneck 14.9355 -13.2175 4.52772
head 6.26741 -6.06854 0.424065
lclavicle 9.71063e-14 1.03368e-14 0
lhumerus -22.2818 -43.1032 93.4637
lradius 57.215 -0 0
lwrist 20.5276 0 0
lhand -10.1861 0.381283 -0.00950813
lfingers 7.12502 -0 0
lthumb 15.805 29.7654 -0.00755187
rclavicle 9.71063e-14 1.03368e-14 0
rhumerus 20.9641 3.37073 -71.7739
rradius 117.244 -0 0
rwrist -58.5138 0 0
rhand -27.1618 -22.7966 0.0107194
rfingers 7.12502 -0 0
rthumb -0.576359 -52.774 0.0103103
613
root 5.56832 16.7253 -3.79911 1.25558 48.9197 -7.28278
lfemur -17.6788 24.8352 -22.0989
ltibia 39.6232 -0 0
lfoot -32.5893 24.572 0.00894578
ltoes 19.4971 -0 0
rfemur -52.7933 -18.1481 28.028
rtibia 62.0536 -0 0
rfoot 7.61885 28.536 0.0973983
rtoes -2.91798 0 0
lowerback 3.154 -3.41088 -4.79041
upperback -0.192234 -4.70825 1.13668
thorax -1.47871 -2.31066 4.03733
lowerneck -8.62524 -9.10753 -0.280474
upperneck 14.9379 -13.0303 4.45369
head 6.2709 -5.9761 0.392508
lclavicle 9.71063e-14 1.03368e-14 0
lhumerus -22.3438 -44.0315 94.0707
lradius 57.837 -0 0
lwrist 20.4747 0 0
lhand -9.98708 0.381943 -0.0136377
lfingers 7.12502 -0 0
lthumb 15.9969 29.7551 -0.0107972
rclavicle 9.71063e-14 1.03368e-14 0
rhumerus 19.8348 3.16744 -71.3744
rradius 116.045 -0 0
rwrist -58.2154 0 0
rhand -27.3096 -23.1582 0.016731
rfingers 7.12502 -0 0
rthumb -0.719081 -53.1346 0.0160924
614
root 5.56396 16.7452 -3.80976 1.84666 47.1103 -6.9833
lfemur -17.4837 24.7721 -22.1206
ltibia 39.1895 -0 0
lfoot -32.6185 24.2117 0.0117404
ltoes 20.1774 -0 0
rfemur -52.6063 -18.251 27.8343
rtibia 62.1481 -0 0
rfoot 7.45806 27.5914 0.127994
rtoes -2.68011 0 0
lowerback 2.92194 -3.44992 -4.70099
upperback -0.342268 -4.74912 1.174
thorax -1.50214 -2.32813 4.01743
lowerneck -8.75774 -8.96182 -0.16089
upperneck 14.9285 -12.8405 4.37669
head 6.27142 -5.883 0.360331
lclavicle 9.71063e-14 1.03368e-14 0
lhumerus -22.4439 -45.0033 94.7332
lradius 58.5228 -0 0
lwrist 20.4327 0 0
lhand -9.80461 0.371045 -0.0172592
lfingers 7.12502 -0 0
lthumb 16.1729 29.7339 -0.0136114
rclavicle 9.71063e-14 1.03368e-14 0
rhumerus 18.5764 3.00597 -70.9262
rradius 114.763 -0 0
rwrist -57.8135 0 0
rhand -27.4702 -23.5515 0.0226657
rfingers 7.12502 -0 0
rthumb -0.874216 -53.5267 0.0218003
